# xmcd CD database file
#
# Track frame offsets:
#	150
#	17995
#	36155
#	53482
#	76979
#	95778
#	113019
#	128077
#	146473
#	165017
#	181423
#	199828
#
# Disc length: 2902 seconds
#
# Revision: 0
# Processed by: cddbd v1.4PL0 Copyright (c) Steve Scherf et al.
# Submitted via: CDex 1.51
#
DISCID=940b540c
DTITLE=Edwin Ramirez - Mision Imposible 3:26
DYEAR=2003
DGENRE=Salsa
TTITLE0=Gozando y Celbrando
TTITLE1=Que Seria De Mi
TTITLE2=Vamos A Cantar
TTITLE3=Gracias
TTITLE4=Mambo 3:16
TTITLE5=El Camino
TTITLE6=Mi Medicina
TTITLE7=Adoremos
TTITLE8=Razon De Vivir
TTITLE9=Culto Encendido
TTITLE10=Estoy Agradecido
TTITLE11=Asi Alabo
EXTD=YEAR: 2003
EXTT0=
EXTT1=
EXTT2=
EXTT3=
EXTT4=
EXTT5=
EXTT6=
EXTT7=
EXTT8=
EXTT9=
EXTT10=
EXTT11=
PLAYORDER=
